<svg width="24" height="25" viewBox="0 0 24 25" fill="none" xmlns="http://www.w3.org/2000/svg">
<rect width="24" height="25" rx="12" fill="#F85F06"/>
<path d="M9.37034 9.79346L11.8874 14.1532H6.85326L9.37034 9.79346Z" fill="#8C1812"/>
<path d="M12.7899 15.7773H5.95117C5.95117 15.7773 6.38825 16.8032 6.68262 17.3161C6.97698 17.829 7.28256 17.9999 7.66086 17.9999H14.3286L12.7899 15.7773Z" fill="#8C1812"/>
<path d="M10.5675 8.08373L16.124 17.8179C16.124 17.8179 16.7939 16.9264 17.0909 16.4151C17.3879 15.9037 17.3832 15.5536 17.194 15.2259C16.6811 14.3376 13.474 8.93857 13.303 8.59663C13.1321 8.25469 12.7901 8.08372 12.1063 8.08372L10.5675 8.08373Z" fill="#8C1812"/>
</svg>
