<svg width="24" height="25" viewBox="0 0 24 25" fill="none" xmlns="http://www.w3.org/2000/svg">
<rect width="24" height="25" rx="12" fill="#F85F06"/>
<path d="M9.06818 15.6065C8.50947 15.6065 8.02888 15.4882 7.62642 15.2514C7.22633 15.0123 6.91856 14.6809 6.70312 14.2571C6.49006 13.8333 6.38352 13.3456 6.38352 12.794C6.38352 12.2353 6.49124 11.7453 6.70668 11.3239C6.92448 10.9001 7.23343 10.5698 7.63352 10.3331C8.03362 10.094 8.50947 9.97443 9.06108 9.97443C9.53693 9.97443 9.9536 10.0608 10.3111 10.2337C10.6686 10.4065 10.9515 10.6491 11.1598 10.9616C11.3681 11.2741 11.483 11.6411 11.5043 12.0625H10.0767C10.0365 11.7902 9.92992 11.5713 9.7571 11.4055C9.58665 11.2375 9.36293 11.1534 9.08594 11.1534C8.85156 11.1534 8.64678 11.2173 8.47159 11.3452C8.29877 11.4706 8.16383 11.6541 8.06676 11.8956C7.9697 12.1371 7.92116 12.4295 7.92116 12.7727C7.92116 13.1207 7.96851 13.4167 8.06321 13.6605C8.16027 13.9044 8.2964 14.0902 8.47159 14.218C8.64678 14.3459 8.85156 14.4098 9.08594 14.4098C9.25876 14.4098 9.41383 14.3743 9.55114 14.3033C9.69081 14.2322 9.80563 14.1293 9.8956 13.9943C9.98793 13.857 10.0483 13.6925 10.0767 13.5007H11.5043C11.4806 13.9174 11.367 14.2843 11.1634 14.6016C10.9621 14.9164 10.6839 15.1626 10.3288 15.3402C9.97372 15.5178 9.5535 15.6065 9.06818 15.6065ZM17.5581 10.0455L15.6511 15.5H13.9466L12.0396 10.0455H13.6376L14.7704 13.9482H14.8272L15.9565 10.0455H17.5581Z" fill="#8C1812"/>
</svg>
