<svg width="24" height="25" viewBox="0 0 24 25" fill="none" xmlns="http://www.w3.org/2000/svg">
<rect width="24" height="25" rx="12" fill="#F78A2C"/>
<circle cx="7.76973" cy="8.269" r="1.26925" fill="#8C1812"/>
<rect x="6.92383" y="11.2305" width="2.11541" height="6.76931" fill="#8C1812"/>
<path d="M10.731 11.2304H12.8464V12.2881C12.8464 12.2881 13.481 11.442 14.3272 11.2304C15.1733 11.0189 15.3849 11.0189 16.231 11.2304C17.0772 11.442 17.5003 12.0766 17.5003 12.7112C17.5003 13.3458 17.5003 17.9997 17.5003 17.9997H15.3849C15.3849 17.9997 15.3849 14.192 15.3849 13.7689C15.3849 13.3458 14.9578 12.9228 14.3272 12.9228C13.7982 12.9228 12.8464 13.7689 12.8464 14.192C12.8464 14.6151 12.8464 17.9997 12.8464 17.9997H10.731V11.2304Z" fill="#8C1812"/>
</svg>
